# xmcd
#
# Track frame offsets: 
#        150
#        14940
#        34336
#        45345
#        59530
#        69846
#        76143
#        91161
#        98846
#        108094
#        122412
#        138633
#        146865
#        158016
#        171002
#        180889
#        196086
#        211441
#        223532
#        237058
#        258773
#        276312
#        302071
#
# Disc length: 4183 seconds
#
# Revision: 2
# Processed by: cddbd v1.5.2PL0 Copyright (c) Steve Scherf et al.
# Submitted via: ExactAudioCopy v0.99pb4
#
DISCID=37105517
DTITLE=Jo Ann Kelly - Key To The Highway
DYEAR=1900
DGENRE=Blues
TTITLE0=Keep Your Hand Out Of My Pocket
TTITLE1=No Chance With You
TTITLE2=You Win Again
TTITLE3=I've Been Scorned
TTITLE4=Can I Get A Witness
TTITLE5=Rolling Log Blues
TTITLE6=Louisiana Blues
TTITLE7=I Can't Be Satisfied
TTITLE8=Levee Camp Holler
TTITLE9=Two Nineteen Blues
TTITLE10=Make Me A Pallet On The Floor
TTITLE11=Key To The Highway
TTITLE12=You've Got To Move
TTITLE13=Black Rat Swing
TTITLE14=Baby What You Want Me To Do
TTITLE15=Louisiana Blues (Version 2)
TTITLE16=Boyfriend Blues
TTITLE17=Catfish Blues
TTITLE18=Walking The Dog
TTITLE19=Jump Steady Daddy
TTITLE20=Put A Record On
TTITLE21=Guitars, Stars, And Early Repertoire
TTITLE22=The Bridge House Days
EXTD=(p)(c) Mooncrest 1999
EXTT0=
EXTT1=
EXTT2=
EXTT3=
EXTT4=
EXTT5=
EXTT6=
EXTT7=
EXTT8=
EXTT9=
EXTT10=
EXTT11=
EXTT12=
EXTT13=
EXTT14=
EXTT15=
EXTT16=
EXTT17=
EXTT18=
EXTT19=
EXTT20=
EXTT21=
EXTT22=
PLAYORDER=
